<?xml version="1.0" encoding="utf-8"?>
<!-- Generator: Adobe Illustrator 16.0.0, SVG Export Plug-In . SVG Version: 6.00 Build 0)  -->
<!DOCTYPE svg PUBLIC "-//W3C//DTD SVG 1.1//EN" "http://www.w3.org/Graphics/SVG/1.1/DTD/svg11.dtd">
<svg version="1.1" id="Camada_1" xmlns="http://www.w3.org/2000/svg" xmlns:xlink="http://www.w3.org/1999/xlink" x="0px" y="0px"
	 width="720px" height="340px" viewBox="1057.325 396.93 720 340" enable-background="new 1057.325 396.93 720 340"
	 xml:space="preserve">
<g>
	<g>
		<path fill="#E20613" d="M1272.289,552.062c0-2.406,0-4.78,0-7.246c100.459,0,200.917,0,301.496,0c0,2.406,0,4.781,0,7.246
			C1473.269,552.062,1372.809,552.062,1272.289,552.062z"/>
		<path fill="#E20613" d="M1272.289,603.899c0-2.405,0-4.78,0-7.246c100.459,0,200.917,0,301.496,0c0,2.466,0,4.78,0,7.246
			C1473.269,603.899,1372.809,603.899,1272.289,603.899z"/>
	</g>
	<g>
		<path fill="#E20613" d="M1347.25,589.979c-2.616,0-5.172,0-7.849,0c0-0.513,0-1.054,0-1.504c0-5.623,0-11.306,0-16.988
			c0-3.068-1.263-4.722-3.818-4.932c-2.857-0.301-4.871,1.263-5.383,4.119c-0.15,0.752-0.21,1.503-0.21,2.165
			c0,5.173,0,10.313,0,15.485c0,0.511,0,1.053,0,1.654c-2.616,0-5.082,0-7.698,0c0-0.812,0-1.504,0-2.256c0-5.021,0-10.013,0-15.033
			c0-0.602,0-1.113-0.061-1.654c-0.45-3.669-2.706-5.172-6.344-4.18c-1.954,0.602-3.006,1.865-3.067,4.27
			c-0.059,4.631-0.059,9.261-0.059,13.922c0,1.353-0.061,2.706,0,3.969c0,0.661-0.151,1.053-0.903,1.053c-2.255-0.06-4.48,0-6.885,0
			c0-9.802,0-19.454,0-29.258c2.405,0,4.781,0,7.336,0c0,1.264,0,2.406,0,3.579c0.151,0.15,0.21,0.211,0.301,0.36
			c1.864-3.276,4.63-4.72,8.299-4.72s6.585,1.263,8.148,5.021c1.504-2.465,3.428-3.969,6.134-4.63
			c5.382-1.353,10.463,1.202,11.757,6.134c0.301,1.202,0.451,2.465,0.451,3.669c0.061,6.434,0,12.779,0,19.213
			C1347.31,589.466,1347.25,589.617,1347.25,589.979z"/>
		<path fill="#E20613" d="M1381.559,577.499c-7.187,0-14.223,0-21.229,0c-0.661,3.219,1.804,6.586,5.231,7.188
			c3.007,0.51,5.684,0.149,7.548-2.706c0.15-0.301,0.601-0.513,0.902-0.513c2.405-0.06,4.78-0.06,7.247-0.06
			c-0.301,2.616-1.805,4.42-3.519,6.044c-3.668,3.368-8.148,3.97-12.869,3.428c-1.353-0.151-2.616-0.511-3.818-1.052
			c-4.721-1.865-7.698-5.233-8.389-10.404c-0.452-3.127-0.452-6.284,0.361-9.262c1.413-5.833,6.344-9.952,12.328-10.252
			c1.955-0.061,3.969,0,5.833,0.451c6.194,1.414,10.103,6.345,10.403,13.079C1381.559,574.733,1381.559,576.057,1381.559,577.499z
			 M1360.391,572.418c4.329,0,8.749,0,13.079,0c-0.15-3.819-2.766-6.285-6.735-6.193
			C1363.096,566.193,1360.391,568.75,1360.391,572.418z"/>
		<path fill="#E20613" d="M1299.802,590.068c-2.766,0-5.322,0.061-7.938-0.06c-0.301,0-0.752-0.451-0.902-0.812
			c-0.21-0.661-0.301-1.414-0.511-2.315c-0.51,0.451-0.962,0.752-1.353,1.112c-3.007,2.557-6.345,3.519-10.253,2.857
			c-3.878-0.753-6.495-3.278-7.036-7.098c-0.602-4.42,1.202-8.237,4.931-9.651c2.405-0.902,4.931-1.202,7.487-1.714
			c1.263-0.3,2.556-0.36,3.819-0.661c1.203-0.361,2.165-1.053,2.165-2.467c0-1.412-0.661-2.404-2.254-2.705
			c-1.504-0.301-3.007-0.361-4.48-0.211c-1.564,0.15-2.707,1.113-3.006,2.706c-0.211,1.112-0.812,1.263-1.714,1.203
			c-1.955-0.06-3.879,0-5.833,0c-0.211-4.721,2.706-8.449,7.397-9.652c3.968-0.962,7.938-0.812,11.816,0.511
			c4.18,1.414,5.773,3.729,5.833,8.148c0.06,5.323,0,10.556,0,15.848c0,1.503-0.151,3.007,1.413,3.879
			C1299.742,589.076,1299.742,589.527,1299.802,590.068z M1290.541,576.146c-2.406,0.511-4.48,0.962-6.585,1.413
			c-0.962,0.212-1.864,0.511-2.706,1.054c-1.414,0.811-1.804,2.164-1.654,3.667c0.15,1.354,0.751,2.314,2.105,2.856
			c3.006,1.263,7.396-0.661,8.239-3.818C1290.391,579.573,1290.391,577.801,1290.541,576.146z"/>
		<path fill="#E20613" d="M1517.017,570.162c-0.301-4.179,2.405-8.088,6.494-9.352c4.631-1.412,9.352-1.202,13.923,0.663
			c3.066,1.263,4.479,3.668,4.569,6.885c0.061,5.533,0.061,11.155,0.061,16.688c0,1.413-0.061,2.916,1.353,3.818
			c0.211,0.15,0.211,0.662,0.36,1.113c-2.766,0-5.321,0.06-7.938-0.061c-0.3,0-0.752-0.512-0.811-0.812
			c-0.301-0.66-0.361-1.412-0.512-2.255c-1.113,0.812-2.104,1.714-3.218,2.405c-3.127,1.955-6.586,2.256-10.103,1.053
			c-3.428-1.264-5.322-4.119-5.383-7.999c-0.06-4.179,1.955-7.396,5.684-8.538c2.855-0.902,5.833-1.203,8.749-1.714
			c0.812-0.15,1.654-0.302,2.405-0.602c1.053-0.361,1.654-1.112,1.654-2.314c-0.061-1.263-0.512-2.407-1.714-2.557
			c-1.863-0.301-3.818-0.301-5.683-0.15c-1.263,0.15-2.104,1.202-2.316,2.465c-0.209,1.054-0.811,1.263-1.712,1.202
			C1520.985,570.072,1519.031,570.162,1517.017,570.162z M1534.606,576.146c-2.466,0.511-4.631,0.962-6.735,1.503
			c-0.812,0.211-1.714,0.512-2.465,0.903c-1.354,0.751-1.865,2.014-1.805,3.517c0.06,1.354,0.661,2.466,1.954,3.067
			c2.856,1.263,7.246-0.45,8.238-3.367C1534.365,579.876,1534.365,577.95,1534.606,576.146z"/>
		<path fill="#E20613" d="M1479.19,590.068c-2.767,0-5.232,0.061-7.788-0.06c-0.301,0-0.752-0.451-0.902-0.812
			c-0.301-0.751-0.36-1.503-0.51-2.256c-1.263,0.902-2.316,1.806-3.519,2.557c-3.879,2.405-9.502,1.955-12.569-0.812
			c-4.27-3.879-3.276-11.968,1.955-14.373c2.465-1.113,5.231-1.413,7.938-2.015c1.264-0.301,2.615-0.361,3.878-0.752
			c1.203-0.3,2.104-1.053,2.104-2.404c0.061-1.414-0.661-2.467-2.164-2.768c-1.504-0.301-3.127-0.36-4.631-0.21
			c-1.653,0.149-2.557,1.353-3.066,2.855c-0.151,0.361-0.602,0.964-0.902,0.964c-2.164,0.06-4.42,0.06-6.585,0.06
			c-0.452-3.97,2.315-8.089,6.494-9.352c4.57-1.413,9.111-1.203,13.681,0.602c3.278,1.263,4.781,3.729,4.781,7.186
			c0.061,3.218,0,6.436,0,9.652c0,2.465,0.061,4.932,0.151,7.486c0,1.203,0.06,2.406,1.203,3.218
			C1479.04,589.016,1479.04,589.466,1479.19,590.068z M1469.99,576.146c-2.316,0.511-4.421,0.962-6.496,1.503
			c-0.962,0.211-1.864,0.512-2.706,0.964c-1.503,0.811-1.804,2.254-1.653,3.817c0.15,1.414,0.902,2.405,2.255,2.856
			c3.277,1.203,7.547-1.113,8.239-4.569C1469.898,579.123,1469.898,577.649,1469.99,576.146z"/>
		<path fill="#E20613" d="M1565.728,569.502c-0.963-3.519-5.834-5.173-8.841-2.917c-0.602,0.452-1.052,1.504-0.961,2.165
			c0.089,0.661,0.901,1.503,1.503,1.714c2.404,0.752,4.87,1.263,7.336,1.954c1.505,0.451,2.917,0.812,4.271,1.413
			c3.007,1.353,4.931,3.428,5.081,6.887c0.21,3.577-1.112,6.584-4.27,8.388c-1.714,0.963-3.818,1.564-5.834,1.865
			c-3.578,0.511-7.186,0.36-10.613-0.902c-3.969-1.504-6.494-5.322-6.195-9.201c0.302-0.061,0.663-0.061,0.964-0.061
			c2.255,0,4.419,0,6.734,0c0.301,1.805,0.902,3.367,2.767,3.969c2.405,0.753,4.781,0.902,7.186-0.06
			c0.964-0.361,1.655-1.112,1.564-2.255c-0.09-1.143-0.662-1.804-1.713-2.104c-2.256-0.661-4.481-1.263-6.797-1.954
			c-1.562-0.452-3.216-0.812-4.721-1.504c-5.231-2.104-6.885-7.487-3.669-12.178c1.354-2.015,3.218-3.428,5.534-4.12
			c4.179-1.202,8.389-1.112,12.479,0.511c3.668,1.414,5.772,4.632,5.682,8.391C1570.719,569.502,1568.253,569.502,1565.728,569.502z
			"/>
		<path fill="#E20613" d="M1510.973,589.979c-2.555,0-4.931,0-7.637,0c-0.062-0.602-0.062-1.113-0.062-1.654
			c0-5.172,0-10.312,0-15.485c0-0.662-0.06-1.263-0.15-1.954c-0.301-2.766-1.353-4.12-3.668-4.48
			c-2.855-0.512-5.383,0.511-6.345,2.916c-0.602,1.413-0.901,3.008-0.901,4.48c-0.15,4.781-0.061,9.652-0.061,14.523
			c0,0.511,0,0.963,0,1.562c-2.615,0-5.021,0-7.637,0c0-9.711,0-19.453,0-29.165c2.466,0,4.781,0,7.336,0c0,1.263,0,2.405,0,3.969
			c0.452-0.511,0.753-0.752,0.902-1.052c3.518-5.323,12.418-4.481,15.847-1.053c1.504,1.503,2.255,3.367,2.314,5.322
			c0.15,7.187,0.061,14.372,0.15,21.528C1511.123,589.617,1511.032,589.677,1510.973,589.979z"/>
		<path fill="#E20613" d="M1447.769,571.216c-2.405,0-4.721,0.06-7.096-0.062c-0.301,0-0.602-0.451-0.752-0.75
			c-0.963-2.768-2.256-3.88-4.63-3.88c-2.857-0.06-4.721,1.052-5.623,3.669c-1.264,3.578-1.264,7.246-0.061,10.854
			c1.113,3.127,4.27,4.481,7.397,3.368c1.804-0.662,2.555-2.105,2.856-3.728c0.21-0.963,0.601-1.203,1.503-1.114
			c2.166,0.062,4.27,0,6.645,0c-0.512,4.18-2.254,7.548-5.683,9.562c-5.172,3.066-10.554,2.918-15.696,0.061
			c-3.127-1.715-4.479-4.871-5.321-8.238c-0.812-3.429-0.752-6.886,0.061-10.255c1.713-7.486,7.637-11.455,15.394-10.553
			c0.964,0.151,1.955,0.301,2.857,0.511C1444.702,561.774,1448.07,566.133,1447.769,571.216z"/>
		<path fill="#E20613" d="M1385.618,560.722c2.405,0,4.72,0,7.246,0c0,1.503,0,3.007,0,4.42c0.151,0.061,0.211,0.061,0.362,0.149
			c0.36-0.45,0.661-0.901,0.962-1.353c1.714-2.615,4.179-3.879,7.336-3.969c0.902-0.06,1.353,0.21,1.353,1.204
			c-0.06,2.165-0.06,4.42-0.06,6.735c-1.203,0-2.255-0.061-3.217,0c-3.819,0.3-5.923,2.315-6.043,6.193
			c-0.15,4.722-0.061,9.502-0.061,14.223c0,0.511,0,1.112,0,1.805c-2.616,0-5.082,0-7.697,0
			C1385.618,580.176,1385.618,570.522,1385.618,560.722z"/>
		<path fill="#E20613" d="M1415.686,589.979c-2.556,0-5.021,0-7.637,0c0-9.953,0-19.816,0-29.768c2.465,0,5.021,0,7.637,0
			C1415.686,570.072,1415.686,579.876,1415.686,589.979z"/>
	</g>
</g>
</svg>
